<?xml version="1.0" standalone="no"?>
<!DOCTYPE svg PUBLIC "-//W3C//DTD SVG 20010904//EN"
 "http://www.w3.org/TR/2001/REC-SVG-20010904/DTD/svg10.dtd">
<svg version="1.0" xmlns="http://www.w3.org/2000/svg"
 width="382.000000pt" height="325.000000pt" viewBox="0 0 382.000000 325.000000"
 preserveAspectRatio="xMidYMid meet">

<g transform="translate(0.000000,325.000000) scale(0.100000,-0.100000)"
fill="#000000" stroke="none">
<path d="M2305 3239 c-22 -5 -74 -14 -115 -20 l-75 -12 -75 -77 c-84 -86 -123
-110 -185 -110 -49 0 -89 -12 -164 -48 -94 -46 -496 -475 -531 -567 -5 -14
-15 -25 -21 -25 -7 0 -10 -3 -6 -6 3 -4 -2 -14 -11 -23 -10 -9 -12 -12 -5 -7
8 5 13 4 13 -3 0 -9 5 -9 20 -1 11 6 17 16 14 25 -4 8 -2 15 3 15 5 0 17 18
27 40 21 48 41 70 64 70 13 0 11 -5 -8 -20 -15 -13 -18 -18 -7 -14 9 3 23 1
30 -5 10 -8 15 0 23 39 8 40 8 50 -3 50 -7 0 -13 5 -13 10 0 6 8 10 17 8 11
-2 22 6 28 20 6 14 18 22 34 22 23 0 23 -1 7 -19 -17 -19 -17 -19 4 -14 12 3
24 13 27 22 23 75 63 131 91 131 12 0 13 -3 4 -12 -17 -17 -15 -33 3 -18 8 6
23 9 35 5 22 -7 70 27 70 49 0 6 -4 4 -10 -4 -5 -8 -12 -12 -15 -8 -8 8 13 85
30 112 17 25 75 62 75 47 0 -5 -5 -13 -10 -16 -6 -4 -8 -10 -5 -14 2 -5 -2
-17 -10 -27 -23 -31 -17 -39 10 -14 20 18 28 21 37 12 9 -9 8 -12 -4 -12 -21
0 -30 -26 -9 -27 9 -1 25 13 36 30 22 33 52 51 42 24 -4 -11 -2 -14 9 -10 8 3
17 17 20 32 8 38 19 56 37 59 13 3 15 -2 7 -30 l-9 -33 19 23 c11 13 23 21 28
18 4 -2 14 -1 22 5 12 7 10 9 -9 9 -20 0 -22 2 -11 15 7 9 19 14 27 11 8 -3
16 1 19 9 4 8 13 15 21 15 10 0 12 -6 8 -22 -7 -22 -6 -22 11 -5 14 13 16 21
8 35 -13 22 -6 52 12 52 8 0 13 -3 11 -7 -7 -12 145 -9 163 2 25 16 60 13 60
-6 0 -9 10 -19 23 -23 35 -9 39 -7 32 15 -6 17 -3 20 12 17 12 -2 17 -11 15
-26 -2 -12 2 -22 7 -22 6 0 11 -7 11 -15 0 -18 12 -19 27 -4 6 6 37 12 69 13
33 2 68 7 79 11 18 7 18 6 -4 -18 -19 -21 -29 -24 -60 -20 -33 6 -35 5 -22
-10 7 -9 11 -23 8 -31 -7 -18 18 -40 34 -31 6 4 15 2 19 -5 5 -8 15 -4 34 17
l27 28 -3 -30 c-3 -26 0 -30 25 -33 17 -2 29 2 33 12 4 11 11 13 24 6 21 -11
89 5 96 23 6 16 51 20 59 7 11 -18 45 -11 45 9 0 11 3 26 6 35 4 11 0 16 -15
16 -13 0 -19 5 -15 14 3 7 -2 20 -10 29 -9 9 -16 22 -16 29 0 10 2 10 9 -1 5
-7 11 -9 14 -4 4 6 -6 16 -21 24 -36 19 -43 29 -31 51 7 14 6 18 -5 18 -8 0
-16 -10 -18 -22 -2 -17 -10 -23 -29 -23 -14 0 -42 -12 -62 -27 -43 -33 -61
-36 -52 -8 5 16 2 20 -14 20 -12 0 -21 5 -21 10 0 6 5 10 11 10 8 0 8 4 1 13
-6 6 -10 23 -10 37 0 14 -3 35 -7 48 -6 17 -3 22 9 22 10 0 14 -4 11 -10 -4
-6 7 -8 27 -4 20 3 28 2 21 -3 -7 -5 -10 -17 -8 -28 2 -11 4 -22 4 -24 1 -2 9
5 19 16 16 19 62 27 62 11 0 -4 11 -8 25 -8 14 0 25 -4 25 -10 0 -5 9 -10 19
-10 11 0 23 -5 26 -11 4 -6 14 -8 22 -4 9 3 26 -1 39 -10 22 -14 24 -13 44 15
12 17 31 30 42 30 17 0 18 2 8 15 -7 8 -8 15 -3 15 10 0 93 -93 93 -104 0 -3
-7 -3 -15 0 -11 5 -15 -1 -15 -18 0 -17 9 -29 33 -41 112 -58 175 -110 199
-163 10 -23 24 -45 31 -47 6 -3 0 -5 -14 -4 -16 1 -26 7 -25 16 1 17 -41 31
-112 35 -41 3 -57 9 -68 25 -20 27 -32 27 -65 -5 -15 -14 -42 -29 -61 -33 -18
-4 -32 -13 -31 -19 4 -15 -35 -35 -53 -28 -9 3 -24 -9 -40 -34 -15 -22 -40
-49 -58 -60 -29 -19 -25 -25 15 -21 9 1 19 -6 23 -15 4 -10 12 -14 22 -10 9 4
28 -4 46 -19 34 -29 51 -25 42 11 -5 21 -3 24 20 24 14 0 26 -5 26 -11 0 -8 5
-8 15 1 12 10 15 10 15 -1 0 -10 3 -10 12 -1 15 15 74 16 84 1 3 -6 1 -16 -5
-22 -25 -25 -14 -27 151 -31 36 0 70 -4 74 -8 18 -19 34 -6 40 32 4 22 7 40 8
40 1 0 16 -4 34 -9 25 -8 32 -7 32 4 0 8 -9 17 -20 20 -24 8 -25 18 -4 36 14
11 18 11 28 -3 9 -12 17 -13 29 -7 25 14 21 26 -13 37 -19 7 -28 16 -24 25 3
10 -12 23 -48 40 -81 41 -224 185 -281 285 -55 94 -94 126 -176 142 -64 12
-499 11 -556 -1z m378 -29 c20 -8 37 -18 37 -22 0 -11 -18 -10 -25 1 -3 5 -19
12 -35 16 -17 4 -30 11 -30 17 0 5 3 8 8 6 4 -2 24 -10 45 -18z m107 -61 c0
-11 -7 -19 -16 -19 -13 0 -14 3 -4 15 6 8 8 20 4 26 -4 8 -3 9 4 5 7 -4 12
-16 12 -27z m-563 15 c-3 -3 -12 -4 -19 -1 -8 3 -5 6 6 6 11 1 17 -2 13 -5z
m-87 -54 c0 -19 -17 -10 -28 15 -17 37 -15 42 8 17 11 -12 20 -26 20 -32z
m340 30 c0 -5 -7 -10 -16 -10 -8 0 -12 5 -9 10 3 6 10 10 16 10 5 0 9 -4 9
-10z m-285 -11 c-7 -11 -35 -12 -35 -1 0 4 9 8 20 9 11 1 18 -2 15 -8z m85 0
c0 -5 16 -15 35 -23 19 -8 35 -22 35 -30 0 -22 -30 -20 -31 2 0 10 -3 12 -6 5
-2 -7 -9 -13 -14 -13 -6 0 -7 5 -4 10 3 6 -4 14 -17 19 -13 5 -29 16 -36 24
-10 12 -8 15 13 15 14 0 25 -4 25 -9z m96 -14 c-19 -14 -36 -12 -36 6 0 5 12
9 28 9 26 -1 26 -1 8 -15z m-282 -11 c4 -10 1 -14 -6 -12 -15 5 -23 28 -10 28
5 0 13 -7 16 -16z m126 -4 c0 -5 -2 -10 -4 -10 -3 0 -8 5 -11 10 -3 6 -1 10 4
10 6 0 11 -4 11 -10z m277 -5 c7 -21 -28 -48 -42 -33 -7 7 -6 12 3 15 6 3 12
11 12 19 0 19 19 18 27 -1z m-107 -22 c0 -5 -4 -15 -10 -23 -11 -18 -25 -7
-17 15 6 15 27 21 27 8z m364 -90 c-10 -7 -23 -13 -30 -13 -7 0 -16 -9 -19
-20 -6 -20 -35 -28 -35 -10 0 17 40 51 51 44 7 -4 9 1 4 15 -6 20 -5 20 20 9
25 -11 25 -13 9 -25z m-931 -3 c-4 -4 -23 -10 -42 -14 -27 -5 -31 -3 -22 7 6
8 24 14 41 14 17 0 27 -3 23 -7z m947 -30 c0 -5 -4 -10 -10 -10 -5 0 -10 5
-10 10 0 6 5 10 10 10 6 0 10 -4 10 -10z m-200 -40 c0 -5 -2 -10 -4 -10 -3 0
-8 5 -11 10 -3 6 -1 10 4 10 6 0 11 -4 11 -10z m745 -130 c-3 -5 -1 -10 4 -10
6 0 11 -3 11 -8 0 -9 -59 -36 -66 -30 -9 10 8 36 29 46 28 14 29 14 22 2z
m-1795 -30 c0 -5 -4 -10 -10 -10 -5 0 -10 5 -10 10 0 6 5 10 10 10 6 0 10 -4
10 -10z m1285 -60 c-3 -5 -12 -7 -20 -3 -21 7 -19 13 6 13 11 0 18 -4 14 -10z
m-1440 -70 c-3 -5 -11 -10 -16 -10 -6 0 -7 5 -4 10 3 6 11 10 16 10 6 0 7 -4
4 -10z"/>
<path d="M2657 3123 c-4 -3 -7 -12 -7 -19 0 -17 27 -7 34 12 5 14 -15 20 -27
7z"/>
<path d="M2750 3092 c0 -16 59 -52 74 -46 23 9 19 21 -9 28 -14 4 -25 11 -25
16 0 6 -9 10 -20 10 -11 0 -20 -4 -20 -8z"/>
<path d="M2850 3011 c0 -11 -4 -23 -10 -26 -15 -9 -12 -25 4 -25 15 0 28 58
14 66 -4 3 -8 -4 -8 -15z"/>
<path d="M2890 2960 c0 -5 5 -10 10 -10 6 0 10 5 10 10 0 6 -4 10 -10 10 -5 0
-10 -4 -10 -10z"/>
<path d="M2930 2960 c0 -5 4 -10 9 -10 6 0 13 5 16 10 3 6 -1 10 -9 10 -9 0
-16 -4 -16 -10z"/>
<path d="M2052 2940 c0 -14 2 -19 5 -12 2 6 2 18 0 25 -3 6 -5 1 -5 -13z"/>
<path d="M2843 2936 c-17 -19 18 -50 45 -42 25 8 47 34 38 44 -4 4 -12 -1 -17
-11 -13 -22 -41 -22 -37 -1 4 22 -14 27 -29 10z"/>
<path d="M2210 2925 c0 -9 5 -15 11 -13 6 2 11 8 11 13 0 5 -5 11 -11 13 -6 2
-11 -4 -11 -13z"/>
<path d="M3045 2930 c-3 -5 -1 -10 4 -10 6 0 11 5 11 10 0 6 -2 10 -4 10 -3 0
-8 -4 -11 -10z"/>
<path d="M2028 2874 c-3 -5 -2 -18 2 -28 3 -11 9 -15 12 -10 3 5 2 18 -2 28
-3 11 -9 15 -12 10z"/>
<path d="M1860 2856 c0 -2 7 -7 16 -10 8 -3 12 -2 9 4 -6 10 -25 14 -25 6z"/>
<path d="M2620 2846 c0 -2 7 -7 16 -10 8 -3 12 -2 9 4 -6 10 -25 14 -25 6z"/>
<path d="M1620 2750 c0 -5 4 -10 9 -10 6 0 13 5 16 10 3 6 -1 10 -9 10 -9 0
-16 -4 -16 -10z"/>
<path d="M3460 2745 c7 -9 15 -13 17 -11 7 7 -7 26 -19 26 -6 0 -6 -6 2 -15z"/>
<path d="M2340 2742 c0 -10 57 -62 95 -87 49 -32 105 -55 134 -55 15 0 33 -6
40 -12 10 -11 15 -9 26 5 11 15 11 23 -1 45 -12 24 -19 26 -73 27 -32 0 -65 5
-72 11 -8 5 -27 11 -44 13 -16 1 -44 16 -60 32 -31 29 -45 36 -45 21z"/>
<path d="M3450 2686 c0 -15 24 -28 34 -19 7 7 -13 33 -25 33 -5 0 -9 -6 -9
-14z"/>
<path d="M3540 2688 c0 -18 18 -34 28 -24 3 4 -2 14 -11 23 -16 16 -17 16 -17
1z"/>
<path d="M3590 2691 c0 -5 17 -21 38 -36 l37 -28 -34 36 c-37 39 -41 42 -41
28z"/>
<path d="M1697 2653 c10 -18 20 -28 22 -22 2 6 -6 21 -19 33 l-21 21 18 -32z"/>
<path d="M2956 2642 c-3 -6 -1 -14 5 -17 15 -10 25 3 12 16 -7 7 -13 7 -17 1z"/>
<path d="M1591 2624 c0 -11 3 -14 6 -6 3 7 2 16 -1 19 -3 4 -6 -2 -5 -13z"/>
<path d="M3706 2575 c4 -11 10 -59 12 -106 3 -85 3 -87 -28 -123 -18 -20 -41
-36 -51 -36 -10 0 -19 -4 -19 -10 0 -5 -8 -14 -18 -19 -15 -8 -18 -6 -18 12 1
28 -29 34 -55 12 -22 -21 -95 -27 -92 -8 2 7 -13 20 -32 29 -28 13 -38 14 -49
4 -8 -6 -27 -10 -43 -9 -58 4 -83 -1 -83 -17 0 -14 -3 -14 -15 -4 -11 9 -13
16 -5 24 16 16 12 23 -19 36 -35 14 -60 2 -79 -38 -18 -39 -15 -58 13 -80 24
-19 35 -40 15 -27 -6 4 -17 2 -25 -5 -10 -8 -19 -8 -34 -1 -11 6 -24 10 -28
10 -8 -2 -22 2 -69 21 -12 5 -31 6 -43 3 -12 -3 -31 1 -43 9 -13 8 -36 18 -53
22 -16 4 -52 15 -80 26 -27 10 -83 30 -122 45 -40 15 -73 30 -73 35 0 4 -8 7
-17 6 -10 0 -22 9 -27 21 -11 25 -43 38 -109 46 -15 2 -30 7 -34 10 -3 4 -15
7 -25 7 -10 0 -40 11 -66 24 -32 16 -69 25 -119 28 l-72 4 19 -21 c10 -11 41
-27 67 -34 194 -56 274 -98 354 -186 17 -18 43 -39 59 -45 30 -13 40 -34 40
-92 0 -21 5 -38 11 -38 8 0 8 -4 1 -12 -5 -7 -13 -28 -17 -45 -3 -18 -11 -35
-16 -38 -15 -10 -139 -12 -139 -3 0 4 -18 8 -40 8 -22 0 -40 5 -40 10 0 6 -10
10 -22 10 -13 0 -34 12 -47 25 -33 35 -50 32 -48 -7 2 -18 6 -39 10 -45 12
-19 -32 -16 -73 5 -19 9 -35 24 -35 31 0 8 -9 15 -21 16 -30 2 -94 54 -87 71
3 9 -2 14 -14 14 -30 0 -72 23 -79 43 -5 17 -20 22 -61 18 -16 -1 -28 9 -44
39 -13 22 -28 38 -33 35 -6 -3 -19 -8 -28 -11 -22 -8 -23 -23 -4 -30 8 -3 16
-14 19 -26 4 -15 12 -19 34 -16 24 3 28 0 28 -23 0 -19 21 -50 75 -108 41 -44
78 -81 82 -81 4 0 19 -11 34 -25 19 -18 33 -23 50 -19 20 5 23 3 18 -10 -4
-10 -2 -16 4 -14 12 3 27 -6 135 -76 38 -25 76 -48 86 -51 10 -3 30 -28 45
-56 22 -39 31 -48 41 -39 10 9 12 -2 10 -54 -4 -84 -14 -128 -27 -120 -6 4 -8
2 -5 -4 4 -5 16 -8 27 -5 14 4 21 17 26 50 10 69 30 128 38 115 4 -7 4 -16 1
-22 -3 -5 1 -10 9 -10 9 0 16 7 16 15 0 11 12 15 51 15 48 0 50 -1 44 -22 -4
-13 -13 -35 -20 -50 -9 -19 -10 -29 -2 -37 19 -19 24 -12 38 49 l13 60 63 0
c79 0 82 17 5 26 -37 4 -59 11 -59 19 0 9 10 10 34 5 19 -5 36 -4 39 2 3 5 11
7 17 5 6 -2 21 5 32 15 19 18 20 18 32 2 8 -11 13 -13 13 -5 0 19 95 128 108
123 7 -2 12 3 12 10 0 8 25 25 55 37 57 24 66 35 39 45 -9 4 -14 9 -11 13 4 3
14 0 23 -8 16 -13 17 -11 10 14 -5 20 -2 29 9 33 10 4 13 13 9 26 -4 13 -2 18
4 14 7 -4 14 8 18 29 4 25 11 35 20 31 8 -3 14 1 14 10 0 10 -6 14 -15 10 -13
-5 -13 -2 1 19 9 14 14 34 11 45 -5 18 -1 20 46 18 34 -1 41 -3 21 -5 -31 -4
-31 -5 -36 -72 -5 -69 -16 -92 -100 -201 -22 -29 -27 -46 -27 -93 0 -55 10
-74 23 -41 3 9 6 37 6 64 0 42 4 50 33 73 38 29 107 152 107 190 0 14 -7 33
-16 42 -9 9 -15 18 -13 19 2 2 72 6 154 8 125 4 161 8 215 28 36 13 72 29 81
37 8 7 20 13 26 13 6 0 22 12 37 26 22 23 26 35 26 89 0 83 -17 166 -37 185
-14 14 -15 13 -7 -5z m-1339 -600 c-18 -17 -52 -21 -42 -4 8 11 48 29 54 23 2
-2 -4 -10 -12 -19z m466 -122 c-7 -2 -19 -2 -25 0 -7 3 -2 5 12 5 14 0 19 -2
13 -5z m47 -23 c0 -5 -14 -7 -32 -3 -46 8 -48 13 -5 13 21 0 37 -4 37 -10z
m-416 -66 c3 -8 2 -12 -4 -9 -6 3 -10 10 -10 16 0 14 7 11 14 -7z m86 -29 c0
-8 -4 -15 -8 -15 -5 0 -9 7 -9 15 0 8 4 15 9 15 4 0 8 -7 8 -15z m110 -15 c0
-5 -4 -10 -10 -10 -5 0 -10 5 -10 10 0 6 5 10 10 10 6 0 10 -4 10 -10z"/>
<path d="M2660 2533 c1 -28 23 -51 55 -55 22 -2 31 2 33 15 3 13 -3 17 -26 17
-21 0 -31 6 -35 20 -6 25 -27 27 -27 3z"/>
<path d="M2821 2497 c-8 -10 -7 -18 3 -32 16 -23 36 -12 36 21 0 26 -21 32
-39 11z"/>
<path d="M2870 2429 c0 -11 5 -17 10 -14 6 3 10 13 10 21 0 8 -4 14 -10 14 -5
0 -10 -9 -10 -21z"/>
<path d="M1656 2341 c-3 -5 1 -12 10 -15 22 -8 25 -4 9 11 -8 7 -16 9 -19 4z"/>
<path d="M1707 2324 c6 -15 23 -19 23 -5 0 5 -7 11 -14 14 -10 4 -13 1 -9 -9z"/>
<path d="M3478 2333 c7 -3 16 -2 19 1 4 3 -2 6 -13 5 -11 0 -14 -3 -6 -6z"/>
<path d="M2996 2294 c-13 -33 -7 -46 19 -42 14 3 25 1 25 -5 0 -7 4 -7 11 0 9
9 8 18 -5 37 -19 29 -41 34 -50 10z"/>
<path d="M1062 2267 c-12 -14 -34 -67 -28 -67 8 0 48 71 44 76 -3 2 -10 -1
-16 -9z"/>
<path d="M2235 2110 c-3 -5 1 -10 9 -10 9 0 16 5 16 10 0 6 -4 10 -9 10 -6 0
-13 -4 -16 -10z"/>
<path d="M3152 2060 c0 -14 2 -19 5 -12 2 6 2 18 0 25 -3 6 -5 1 -5 -13z"/>
<path d="M1451 2024 c0 -11 3 -14 6 -6 3 7 2 16 -1 19 -3 4 -6 -2 -5 -13z"/>
<path d="M1826 2014 c-3 -8 -2 -13 3 -10 11 7 21 -18 21 -53 0 -15 9 -36 20
-46 19 -18 20 -17 20 2 0 10 -10 39 -22 64 -12 24 -21 47 -20 52 4 14 -16 7
-22 -9z"/>
<path d="M1460 1996 c0 -2 6 -21 14 -43 9 -26 11 -45 4 -56 -10 -19 -1 -22 21
-8 9 6 11 15 6 27 -5 11 -9 24 -10 29 -3 24 -17 55 -26 55 -5 0 -9 -2 -9 -4z"/>
<path d="M1516 1843 c-11 -11 -6 -23 9 -23 8 0 15 4 15 9 0 13 -16 22 -24 14z"/>
<path d="M1390 1829 c0 -5 5 -7 10 -4 6 3 10 8 10 11 0 2 -4 4 -10 4 -5 0 -10
-5 -10 -11z"/>
<path d="M765 1820 c-3 -5 -1 -10 4 -10 6 0 11 5 11 10 0 6 -2 10 -4 10 -3 0
-8 -4 -11 -10z"/>
<path d="M1530 1761 c0 -5 4 -11 8 -13 17 -7 52 -77 42 -83 -6 -4 -2 -13 11
-24 l22 -18 -21 -14 c-20 -14 -20 -18 -7 -55 10 -30 15 -35 20 -22 4 10 15 20
26 23 10 4 19 13 19 22 0 17 24 12 26 -5 1 -7 2 -17 3 -24 0 -7 7 -4 15 7 13
18 14 18 26 -4 7 -13 8 -26 4 -30 -5 -3 -16 -15 -24 -25 -14 -18 -14 -19 8 -5
12 8 22 17 22 21 0 5 15 8 33 8 27 0 36 -6 45 -26 7 -14 16 -23 21 -20 5 4 12
0 14 -6 4 -10 6 -10 6 0 1 17 26 15 41 -3 7 -8 22 -15 33 -15 18 0 19 2 5 18
-8 9 -18 25 -22 35 -3 11 -15 21 -26 24 -11 3 -20 13 -20 22 0 10 -12 24 -27
32 -15 8 -57 34 -93 58 -36 23 -75 47 -87 52 -13 5 -23 13 -23 18 0 5 -14 12
-31 16 -17 4 -33 13 -35 20 -6 16 -34 28 -34 16z m90 -89 c0 -10 -7 -19 -14
-19 -11 0 -13 5 -5 19 5 10 12 18 14 18 3 0 5 -8 5 -18z"/>
<path d="M1380 1724 c0 -8 5 -12 10 -9 6 4 8 11 5 16 -9 14 -15 11 -15 -7z"/>
<path d="M2320 1720 c0 -5 5 -10 10 -10 6 0 10 5 10 10 0 6 -4 10 -10 10 -5 0
-10 -4 -10 -10z"/>
<path d="M2837 1710 c-6 -24 -1 -25 19 -6 18 18 18 26 0 26 -7 0 -16 -9 -19
-20z"/>
<path d="M681 1703 c-1 -6 -4 -20 -7 -30 -5 -17 -5 -17 6 0 6 10 9 23 6 30 -3
9 -5 9 -5 0z"/>
<path d="M2153 1693 c9 -2 23 -2 30 0 6 3 -1 5 -18 5 -16 0 -22 -2 -12 -5z"/>
<path d="M1718 1683 c7 -3 16 -2 19 1 4 3 -2 6 -13 5 -11 0 -14 -3 -6 -6z"/>
<path d="M1240 1660 c0 -5 7 -10 16 -10 8 0 12 5 9 10 -3 6 -10 10 -16 10 -5
0 -9 -4 -9 -10z"/>
<path d="M1830 1644 c0 -13 21 -44 30 -44 17 0 11 25 -10 38 -11 7 -20 10 -20
6z"/>
<path d="M2281 1608 c-36 -89 -51 -134 -50 -148 0 -8 5 -1 11 15 6 17 19 41
28 55 14 21 36 110 27 110 -1 0 -9 -15 -16 -32z"/>
<path d="M2545 1630 c3 -5 8 -10 11 -10 2 0 4 5 4 10 0 6 -5 10 -11 10 -5 0
-7 -4 -4 -10z"/>
<path d="M2831 1624 c0 -11 3 -14 6 -6 3 7 2 16 -1 19 -3 4 -6 -2 -5 -13z"/>
<path d="M2150 1621 c0 -5 9 -12 19 -16 10 -3 21 -15 24 -25 9 -33 27 -22 27
15 0 33 -2 35 -35 35 -19 0 -35 -4 -35 -9z"/>
<path d="M1510 1600 c0 -5 5 -10 11 -10 5 0 7 5 4 10 -3 6 -8 10 -11 10 -2 0
-4 -4 -4 -10z"/>
<path d="M1930 1546 c0 -9 5 -16 10 -16 6 0 10 4 10 9 0 6 -4 13 -10 16 -5 3
-10 -1 -10 -9z"/>
<path d="M2075 1542 c-8 -8 -6 -22 3 -20 4 0 15 -2 24 -6 21 -9 48 -4 51 9 2
10 -69 26 -78 17z"/>
<path d="M2364 1533 c10 -11 56 -11 56 -1 0 4 -14 8 -32 8 -17 0 -28 -3 -24
-7z"/>
<path d="M2620 1525 c-6 -8 -8 -20 -4 -26 5 -9 11 -7 21 6 23 33 9 51 -17 20z"/>
<path d="M2500 1520 c0 -5 5 -10 11 -10 5 0 7 5 4 10 -3 6 -8 10 -11 10 -2 0
-4 -4 -4 -10z"/>
<path d="M2785 1521 c-15 -14 -98 -21 -111 -10 -8 7 -14 7 -18 0 -13 -20 102
-36 121 -17 4 3 11 1 18 -4 8 -6 18 -5 31 5 19 15 19 15 -1 13 -12 -2 -19 2
-17 10 2 14 -10 16 -23 3z"/>
<path d="M1986 1493 c-8 -30 5 -43 47 -43 34 0 34 9 -1 43 -35 33 -38 33 -46
0z"/>
<path d="M2430 1440 c0 -5 5 -10 10 -10 6 0 10 5 10 10 0 6 -4 10 -10 10 -5 0
-10 -4 -10 -10z"/>
<path d="M1078 1393 c7 -3 16 -2 19 1 4 3 -2 6 -13 5 -11 0 -14 -3 -6 -6z"/>
<path d="M1205 1310 c3 -5 8 -10 11 -10 2 0 4 5 4 10 0 6 -5 10 -11 10 -5 0
-7 -4 -4 -10z"/>
<path d="M534 1186 c-3 -8 -4 -23 -2 -33 3 -13 7 -9 15 15 12 31 -1 48 -13 18z"/>
<path d="M454 1160 c-10 -10 -8 -88 2 -99 10 -11 15 11 12 58 -2 38 -6 49 -14
41z"/>
<path d="M526 1113 c-6 -14 -5 -15 5 -6 7 7 10 15 7 18 -3 3 -9 -2 -12 -12z"/>
<path d="M2636 1122 c-2 -4 13 -6 35 -4 21 2 39 6 39 8 0 7 -69 4 -74 -4z"/>
<path d="M360 1096 c0 -8 7 -21 15 -30 27 -27 11 -66 -27 -66 -10 0 -18 -4
-18 -10 0 -5 9 -10 19 -10 27 0 34 -15 15 -31 -12 -10 -20 -10 -34 -1 -16 10
-20 8 -26 -11 -12 -36 -5 -89 14 -103 10 -8 12 -13 5 -14 -8 0 -11 -11 -7 -32
13 -79 30 -120 61 -149 18 -16 33 -34 33 -39 0 -6 18 -18 39 -27 31 -13 37
-20 29 -30 -8 -10 -5 -13 11 -13 12 0 19 -4 16 -10 -3 -5 1 -10 9 -10 9 0 16
-7 16 -15 0 -23 30 -18 39 7 l8 22 12 -21 c9 -18 8 -23 -9 -28 -24 -8 -17 -25
10 -25 24 0 34 -25 31 -85 -4 -86 -6 -100 -16 -107 -6 -5 -4 -8 6 -8 8 0 21 6
28 12 11 10 13 10 7 1 -4 -7 -4 -13 1 -13 16 0 74 40 79 55 11 27 49 16 104
-31 30 -26 59 -52 65 -59 13 -17 86 -55 105 -55 8 0 27 -6 41 -14 14 -7 38
-16 54 -20 15 -4 64 -25 109 -47 44 -21 86 -39 93 -39 7 0 13 -4 13 -9 0 -13
82 -31 132 -30 24 1 34 3 23 6 -37 8 -85 34 -80 43 3 5 1 11 -4 14 -5 4 -12 2
-16 -4 -4 -7 -12 -7 -25 0 -10 5 -30 10 -44 10 -14 0 -26 4 -26 9 0 6 -8 10
-17 10 -44 -1 -217 78 -260 119 -67 61 -146 122 -162 122 -9 0 -25 7 -35 15
-24 18 -72 20 -79 3 -3 -8 -6 -6 -6 5 -1 9 4 17 10 17 6 0 9 7 5 15 -3 8 -1
15 5 15 6 0 7 5 4 10 -5 8 -11 8 -20 0 -8 -7 -15 -7 -19 -1 -4 5 -2 12 4 16 9
6 -13 52 -31 65 -4 3 -11 18 -14 33 -4 15 -12 27 -17 27 -6 0 -8 6 -5 14 3 8
-1 20 -9 26 -8 7 -14 21 -14 31 0 11 -9 28 -19 38 -12 12 -21 41 -26 82 -4 35
-13 84 -21 108 -7 24 -10 57 -7 73 5 24 2 30 -14 34 -11 3 -26 16 -33 29 -7
12 -17 22 -24 22 -38 -1 -45 6 -61 53 -15 46 -45 70 -45 36z m10 -175 c0 -12
-29 -41 -40 -41 -19 0 -22 24 -5 37 22 15 45 17 45 4z m194 -376 c-4 -8 -13
-15 -22 -15 -13 0 -12 3 4 15 24 18 25 18 18 0z m108 -227 c-7 -7 -12 -8 -12
-2 0 14 12 26 19 19 2 -3 -1 -11 -7 -17z"/>
<path d="M65 898 c-51 -60 -65 -99 -65 -184 0 -66 21 -144 39 -144 3 0 5 38 3
84 -4 100 8 151 47 199 20 26 27 44 24 62 -3 14 -7 25 -8 25 -2 0 -20 -19 -40
-42z"/>
<path d="M1016 920 c-31 -5 -49 -30 -22 -30 9 0 21 -9 28 -20 13 -21 48 -28
48 -10 0 6 -7 10 -15 10 -8 0 -15 5 -15 11 0 5 4 8 8 5 4 -2 13 4 20 15 7 11
8 19 2 19 -5 0 -10 -6 -11 -12 0 -8 -3 -7 -7 2 -5 11 -16 14 -36 10z"/>
<path d="M898 889 c-22 -12 -23 -29 -3 -29 20 0 65 22 65 32 0 11 -41 10 -62
-3z"/>
<path d="M1087 893 c-4 -3 -7 -11 -7 -17 0 -6 5 -5 12 2 6 6 9 14 7 17 -3 3
-9 2 -12 -2z"/>
<path d="M1190 881 c0 -11 5 -23 12 -27 6 -4 8 -3 4 4 -3 6 -2 13 4 17 12 7 4
25 -11 25 -5 0 -9 -9 -9 -19z"/>
<path d="M1109 869 c-25 -21 -24 -29 4 -28 12 0 36 -3 52 -6 25 -5 27 -4 12 5
-11 7 -16 18 -12 29 7 22 -30 23 -56 0z m36 -9 c3 -6 -1 -7 -9 -4 -18 7 -21
14 -7 14 6 0 13 -4 16 -10z"/>
<path d="M1260 884 c0 -5 7 -18 15 -28 12 -16 15 -17 15 -4 0 8 -7 21 -15 28
-8 7 -15 9 -15 4z"/>
<path d="M970 865 c0 -10 10 -15 27 -15 26 0 26 1 7 15 -25 19 -34 19 -34 0z"/>
<path d="M1290 818 c0 -4 9 -8 19 -8 11 0 23 -5 26 -10 4 -6 23 -10 43 -9 20
1 50 -3 65 -10 42 -16 46 -13 12 9 -21 14 -39 18 -62 14 -24 -5 -34 -2 -39 9
-6 16 -64 21 -64 5z"/>
<path d="M945 810 c-19 -8 -19 -9 3 -9 12 -1 22 4 22 9 0 6 -1 10 -2 9 -2 0
-12 -4 -23 -9z"/>
<path d="M1642 748 c26 -33 48 -47 48 -29 0 12 -51 61 -64 61 -5 0 3 -14 16
-32z"/>
<path d="M1705 673 c10 -16 40 -59 68 -97 27 -38 53 -83 58 -101 5 -17 15 -40
23 -50 13 -18 14 -16 9 25 -3 28 -15 55 -30 72 -14 14 -36 48 -49 75 -13 26
-24 44 -24 38 0 -5 -12 7 -27 28 -30 42 -54 51 -28 10z"/>
<path d="M2125 550 c-3 -5 -1 -10 4 -10 6 0 11 5 11 10 0 6 -2 10 -4 10 -3 0
-8 -4 -11 -10z"/>
<path d="M2970 459 c0 -5 5 -7 10 -4 6 3 10 8 10 11 0 2 -4 4 -10 4 -5 0 -10
-5 -10 -11z"/>
<path d="M1213 426 c-13 -6 -23 -16 -23 -23 0 -18 19 -16 26 2 4 8 10 13 14
10 5 -3 11 -1 14 4 10 15 -7 18 -31 7z"/>
<path d="M147 419 c7 -7 15 -10 18 -7 3 3 -2 9 -12 12 -14 6 -15 5 -6 -5z"/>
<path d="M770 415 c0 -8 5 -15 10 -15 6 0 10 7 10 15 0 8 -4 15 -10 15 -5 0
-10 -7 -10 -15z"/>
<path d="M2640 411 c0 -5 9 -7 20 -4 11 3 20 7 20 9 0 2 -9 4 -20 4 -11 0 -20
-4 -20 -9z"/>
<path d="M2458 403 c12 -2 30 -2 40 0 9 3 -1 5 -23 4 -22 0 -30 -2 -17 -4z"/>
<path d="M2723 403 c9 -2 23 -2 30 0 6 3 -1 5 -18 5 -16 0 -22 -2 -12 -5z"/>
<path d="M3247 383 c-6 -16 -16 -31 -20 -34 -5 -4 -4 -16 2 -28 10 -17 21 -21
63 -21 l51 0 -20 23 c-11 12 -26 37 -33 55 -15 39 -27 41 -43 5z"/>
<path d="M3006 382 c-3 -5 1 -17 8 -27 11 -16 14 -16 19 -2 6 17 -18 44 -27
29z"/>
<path d="M3150 335 c0 -33 -2 -36 -22 -29 -13 3 -27 13 -31 21 -12 19 -26 7
-20 -17 3 -11 2 -20 -1 -20 -12 0 -51 23 -58 34 -7 9 -12 -11 -10 -35 1 -3
-11 -4 -26 -1 -22 3 -36 -5 -70 -39 -38 -39 -59 -75 -29 -51 6 5 46 24 87 42
41 18 77 35 80 39 6 7 10 8 95 10 63 1 88 17 45 28 -11 3 -20 14 -20 24 0 10
-4 21 -10 24 -6 4 -10 -8 -10 -30z"/>
<path d="M390 297 c0 -9 124 -47 149 -46 18 1 10 6 -29 19 -67 21 -120 33
-120 27z"/>
<path d="M2855 274 c-27 -7 -55 -12 -62 -9 -7 2 -15 0 -18 -5 -4 -6 6 -10 22
-10 36 0 101 18 108 30 4 6 5 10 3 9 -2 0 -25 -7 -53 -15z"/>
<path d="M2266 254 c-9 -24 -7 -35 7 -33 6 1 23 -1 37 -5 14 -3 39 -2 55 3 28
10 27 10 -15 8 -38 -2 -46 1 -55 21 -11 26 -21 28 -29 6z"/>
<path d="M2532 253 c-16 -30 4 -36 103 -27 119 10 127 23 13 24 -68 0 -98 4
-100 12 -3 8 -9 5 -16 -9z"/>
<path d="M2414 239 c-2 -4 2 -9 9 -12 16 -6 67 3 67 12 0 8 -71 8 -76 0z"/>
<path d="M2510 211 c0 -6 5 -13 10 -16 6 -3 10 1 10 9 0 9 -4 16 -10 16 -5 0
-10 -4 -10 -9z"/>
<path d="M1833 203 c-18 -6 -16 -30 2 -37 9 -3 18 1 22 10 7 18 -7 33 -24 27z"/>
<path d="M2200 165 c-19 -25 -41 -45 -47 -45 -7 0 -13 -4 -13 -9 0 -5 -10 -12
-22 -17 -14 -5 70 -10 212 -11 232 -3 235 -3 287 22 30 14 61 25 69 25 13 0
14 3 4 15 -6 8 -9 19 -5 25 3 5 -1 10 -9 10 -9 0 -13 -6 -10 -14 3 -9 -5 -15
-27 -20 -45 -9 -49 -8 -43 8 6 15 -29 32 -46 21 -5 -3 -19 -1 -30 5 -22 12
-60 -2 -60 -22 0 -30 -103 -55 -112 -27 -3 9 -10 9 -26 0 -13 -7 -20 -16 -17
-22 4 -5 -3 -9 -14 -9 -19 0 -22 14 -8 38 5 7 3 12 -6 12 -8 0 -17 -9 -20 -20
-3 -12 -14 -20 -26 -20 -20 0 -21 1 -5 25 8 13 13 29 10 34 -4 5 -2 12 4 16
12 7 14 25 3 25 -5 -1 -24 -21 -43 -45z"/>
<path d="M2795 200 c-16 -7 -17 -9 -3 -9 9 -1 20 4 23 9 7 11 7 11 -20 0z"/>
<path d="M1213 156 c-13 -15 -7 -26 14 -26 7 0 13 9 13 20 0 23 -10 25 -27 6z"/>
<path d="M2716 152 c-3 -5 1 -9 9 -9 8 0 12 4 9 9 -3 4 -7 8 -9 8 -2 0 -6 -4
-9 -8z"/>
</g>
</svg>
